<?xml version="1.0" encoding="UTF-8" standalone="no"?>
<!DOCTYPE svg PUBLIC "-//W3C//DTD SVG 1.1//EN" "http://www.w3.org/Graphics/SVG/1.1/DTD/svg11.dtd">
<svg
    xmlns:svg="http://www.w3.org/2000/svg"
    xmlns="http://www.w3.org/2000/svg"
    version="1.1"
    width="250"
    height="250.0031"
    id="svg3322">
  <defs id="defs3324" />
  <path
      d="m 0,250.00309 182.6967,0 C 219.86691,250.00309 250,220.0521 250,183.07016 L 250,0 67.3033,0 C 30.13309,0 0,29.95407 0,66.93292 l 0,183.07017 z"
      id="path20"
      style="fill:#5d961c;fill-opacity:1;fill-rule:nonzero;stroke:none;"
  />
  <path
      d="m 211.2023,113.63227 0,2.16361 -0.1821,0 c -3.47535,-5.77785 -9.72234,-8.54023 -16.36749,-8.54023 -14.36437,0 -23.28732,11.21001 -23.28732,24.98487 0,13.47857 9.22542,24.79661 23.48794,24.79661 6.54947,0 12.09583,-2.48151 15.55884,-7.11737 l 0.21296,0 0,3.46609 c 0,9.42295 -3.58338,16.34588 -15.08352,16.34588 -5.9476,0 -12.08657,-2.3704 -16.64835,-6.73157 l -6.82725,9.18839 c 6.13897,5.07722 15.84279,7.84269 23.58672,7.84269 18.53726,0 26.86452,-10.90754 26.86452,-28.03738 l 0,-43.35548 -6.30872,0 c -2.74694,0 -5.00623,2.25312 -5.00623,4.99389 m -14.15758,33.59609 c -8.52789,0 -13.58968,-7.55256 -13.58968,-15.08352 0,-8.41677 5.06179,-15.1792 13.6761,-15.1792 8.63591,0 14.07116,6.96305 14.07116,15.1792 0,7.94455 -5.35809,15.08352 -14.15758,15.08352 m -45.88051,-50.92717 -0.0741,-0.48457 0,18.28726 -0.2963,0 c -2.4846,-3.08954 -7.24701,-7.44454 -15.96316,-7.44454 -13.59894,0 -23.12375,10.91372 -23.12375,24.99723 0,13.8798 8.93221,25.37994 23.42622,25.37994 6.62354,0 13.07424,-3.06794 16.33045,-8.50936 l 0.21605,0 0,7.13589 11.3057,0 0,-68.84962 -2.29633,0 c -5.2408,0 -9.52481,4.25314 -9.52481,9.48777 m -13.65757,50.83705 c -9.2316,0 -13.70388,-8.04948 -13.70388,-15.48167 0,-7.45071 4.47228,-15.27797 13.70388,-15.27797 8.72233,0 13.95696,8.03096 13.95696,15.48167 0,7.44145 -5.23463,15.27797 -13.95696,15.27797 m -45.01229,-17.83849 0,26.36761 11.88904,0 0,-29.73494 c 0,-9.71308 -5.16365,-19.23789 -17.53726,-19.23789 -7.15441,0 -12.49706,3.2809 -15.66994,9.01863 -2.67905,-5.33957 -7.54639,-9.01863 -14.87982,-9.01863 -7.62355,0 -12.6946,4.37042 -14.7687,9.01863 l -0.20062,0 0,-2.62658 c 0,-2.75929 -2.24385,-5.01858 -4.98771,-5.01858 l -6.30564,0 0,47.59936 11.90138,0 0,-26.17008 c 0,-6.34884 3.27474,-12.87979 10.40754,-12.87979 6.04329,0 8.81492,4.45067 8.81492,10.29951 l 0,28.75036 11.91682,0 0,-25.95711 c 0,-6.14205 3.04016,-13.09276 10.4847,-13.09276 7.64207,0 8.93529,7.02787 8.93529,12.68226"
      id="path32"
      style="fill:#ffffff;fill-opacity:1;fill-rule:nonzero;stroke:none;"
  />
</svg>
