<?xml version="1.0" encoding="UTF-8" standalone="no"?>
<svg
   version="1.1"
   viewBox="0 0 321 430"
   width="321.0pt"
   height="430.0pt"
   id="svg18"
   sodipodi:docname="Norwegian_Communist_Party (1).svg"
   inkscape:version="1.2.2 (732a01da63, 2022-12-09)"
   inkscape:export-filename="Norwegian_Communist_Party (1).png"
   inkscape:export-xdpi="151.888"
   inkscape:export-ydpi="151.888"
   xmlns:inkscape="http://www.inkscape.org/namespaces/inkscape"
   xmlns:sodipodi="http://sodipodi.sourceforge.net/DTD/sodipodi-0.dtd"
   xmlns="http://www.w3.org/2000/svg"
   xmlns:svg="http://www.w3.org/2000/svg">
  <defs
     id="defs22" />
  <sodipodi:namedview
     id="namedview20"
     pagecolor="#ffffff"
     bordercolor="#666666"
     borderopacity="1.0"
     inkscape:showpageshadow="2"
     inkscape:pageopacity="0.0"
     inkscape:pagecheckerboard="0"
     inkscape:deskcolor="#d1d1d1"
     inkscape:document-units="pt"
     showgrid="false"
     inkscape:zoom="1.4372093"
     inkscape:cx="199.69256"
     inkscape:cy="286.66667"
     inkscape:window-width="1920"
     inkscape:window-height="1007"
     inkscape:window-x="-9"
     inkscape:window-y="-9"
     inkscape:window-maximized="1"
     inkscape:current-layer="svg18" />
  <rect
     style="fill:#ffffff;fill-rule:evenodd;stroke-width:0.591946"
     id="rect911"
     width="319.68576"
     height="265.0528"
     x="1.0489274"
     y="0.0025791321" />
  <path
     d="M 0.00 0.00 L 321.00 0.00 L 321.00 209.95 L 320.96 210.76 C 320.42 212.26 319.92 213.61 318.47 214.46 C 313.71 217.05 307.31 217.67 302.18 219.17 C 297.21 220.78 292.23 222.40 287.21 223.89 C 284.03 224.73 280.71 225.25 277.90 223.11 C 273.26 219.47 268.66 215.70 264.42 211.59 C 261.54 208.94 258.81 205.71 255.43 203.71 C 250.48 203.01 246.21 210.21 241.42 206.51 C 234.85 201.41 227.90 196.87 221.71 191.29 C 219.02 189.23 216.78 186.64 214.07 184.63 C 210.14 184.04 205.63 185.65 201.73 186.29 C 199.58 186.76 196.87 186.81 195.01 188.04 C 190.36 191.24 186.10 195.28 181.47 198.48 C 177.73 201.10 173.82 203.36 170.29 206.28 C 162.33 212.74 153.91 218.62 145.53 224.52 C 143.13 226.24 140.67 228.71 137.85 229.67 C 132.05 230.86 126.91 221.83 121.04 223.41 C 116.55 224.55 112.32 226.74 107.94 228.27 C 103.74 229.77 100.10 232.90 95.44 231.51 C 91.64 229.88 88.25 227.25 84.60 225.27 C 80.13 221.64 75.31 218.55 70.60 215.25 C 69.42 214.52 68.36 213.75 66.93 213.63 C 62.81 216.09 59.13 219.40 55.51 222.52 C 48.10 228.48 40.13 233.64 32.87 239.79 C 27.52 243.37 22.20 248.36 16.04 250.36 C 10.21 250.70 4.21 248.94 0.00 244.72 L 0.00 0.00 Z"
     fill="#e60000"
     id="path2" />
  <path
     d="M 156.45 26.89 C 161.72 26.41 166.78 27.14 172.01 27.54 C 179.75 28.17 186.65 30.45 194.06 32.63 C 200.38 34.42 205.44 37.81 211.03 41.06 C 214.86 43.25 218.15 46.65 221.32 49.68 C 228.14 56.05 233.54 64.06 237.44 72.51 C 241.30 80.72 242.78 89.11 244.12 97.99 C 244.34 101.31 243.43 104.67 243.34 108.00 C 243.24 113.78 241.77 119.63 240.14 125.17 C 239.29 127.97 236.31 131.71 237.34 134.64 C 239.31 136.95 242.17 138.60 244.55 140.46 C 250.82 145.21 257.14 149.89 263.46 154.56 C 264.64 155.67 267.18 157.14 266.47 159.02 C 263.77 168.14 257.02 174.52 248.95 179.08 C 246.15 180.53 244.30 178.38 242.21 176.87 C 235.21 170.90 228.43 164.44 221.10 158.87 C 218.33 156.73 216.45 159.87 214.12 161.10 C 210.18 163.45 206.38 166.09 202.35 168.28 C 190.74 173.35 178.77 176.63 166.00 176.15 C 157.95 175.11 150.27 174.01 142.95 170.31 C 134.56 167.39 127.58 162.60 120.09 157.98 C 116.29 155.69 113.69 152.15 109.93 150.03 C 108.09 150.33 106.87 152.39 105.71 153.71 C 100.88 160.17 95.26 165.96 90.29 172.30 C 88.22 174.93 85.71 177.05 83.93 179.92 C 81.73 183.61 78.47 186.23 75.91 189.64 C 69.15 188.94 65.77 183.87 61.49 179.35 C 61.38 176.72 61.42 175.30 63.24 173.28 C 72.60 162.01 82.42 151.10 91.88 139.91 C 92.88 138.71 93.29 137.59 93.18 136.01 C 92.20 134.12 90.63 132.46 89.28 130.83 C 90.72 126.85 93.61 124.55 96.24 121.23 C 97.35 120.10 98.53 118.30 100.37 118.79 C 103.95 120.42 106.75 123.77 109.90 126.13 C 113.29 128.71 116.37 131.66 119.75 134.25 C 127.51 139.53 135.66 144.15 144.56 147.27 C 151.51 150.27 158.55 150.35 166.01 150.57 C 172.24 150.10 178.66 147.92 184.29 145.27 C 187.37 143.29 192.23 141.35 193.76 137.86 C 194.28 135.71 191.12 133.46 189.66 132.28 C 180.76 125.58 172.68 117.97 163.95 111.08 C 159.44 107.27 155.29 102.94 150.57 99.37 C 149.33 98.29 147.94 98.26 146.39 98.03 C 141.51 103.63 136.60 109.16 132.11 115.08 C 130.59 117.14 128.81 118.97 126.95 120.73 C 118.94 115.14 111.79 107.99 104.32 101.71 C 101.01 98.92 96.97 97.13 93.72 94.31 C 92.61 93.55 92.21 92.42 92.51 90.91 C 94.23 88.30 96.78 86.35 98.67 83.82 C 104.10 76.89 109.61 70.07 115.46 63.48 C 121.82 56.43 127.19 48.56 133.30 41.30 C 134.60 40.02 135.87 38.00 137.96 38.33 C 142.96 38.84 147.77 40.44 152.80 40.92 C 161.09 42.96 169.54 44.09 177.87 45.96 C 181.33 46.83 184.39 46.37 186.51 49.77 C 179.35 58.85 171.72 67.47 164.22 76.25 C 163.39 77.33 161.78 79.51 163.44 80.55 C 175.43 90.04 188.07 98.58 200.09 107.83 C 204.07 110.31 207.12 113.40 211.67 114.85 C 214.77 111.52 215.67 106.33 216.60 102.00 C 217.50 98.02 217.54 94.01 217.05 89.96 C 216.43 79.92 213.14 69.82 207.48 61.48 C 206.07 59.28 204.74 56.95 203.08 54.93 C 195.36 45.86 185.07 37.71 173.60 34.12 C 169.75 32.72 166.02 31.11 162.06 30.03 C 159.83 29.29 157.74 29.13 156.45 26.89 Z"
     fill="#ffffff"
     id="path4" />
  <path
     d="M 0.00 264.03 C 105.92 263.95 211.90 264.06 317.80 264.04 C 317.75 271.38 317.83 278.58 316.43 285.82 C 311.71 323.90 293.91 360.52 265.73 386.73 C 255.75 396.03 244.46 403.97 232.50 410.53 C 183.97 437.71 120.03 435.47 73.94 404.09 C 61.13 396.00 49.59 385.79 39.68 374.35 C 18.61 349.82 5.33 319.02 1.14 287.01 C -0.12 280.30 0.15 273.61 0.00 266.82 L 0.00 264.03 Z"
     fill="#0003a2"
     id="path8" />
  <path
     d="M 241.98 289.55 C 250.21 289.35 259.97 292.04 265.47 298.49 C 269.92 302.93 271.85 309.90 272.27 315.99 C 271.68 323.77 269.23 332.88 263.43 338.44 C 258.08 343.82 250.61 347.42 242.99 347.71 C 241.58 347.89 239.87 347.87 238.62 348.58 C 237.38 350.10 237.81 352.17 237.70 354.01 C 237.79 359.66 237.55 365.35 237.87 371.00 C 238.07 374.05 239.83 376.10 240.82 378.91 C 240.20 381.17 236.85 380.95 235.02 381.13 C 229.68 381.05 224.29 381.36 218.97 380.94 C 217.66 380.63 215.37 380.79 215.25 378.97 C 216.36 375.90 218.02 373.41 218.20 370.02 C 218.81 362.02 218.25 354.04 218.65 346.02 C 218.71 330.70 218.69 315.33 218.83 300.00 C 218.85 296.61 217.73 293.59 216.45 290.50 C 218.38 289.68 219.87 289.42 221.99 289.54 C 228.66 289.86 235.31 289.46 241.98 289.55 Z"
     fill="#ffffff"
     id="path10" />
  <path
     d="M 56.32 289.55 C 59.22 288.51 61.97 288.84 65.00 288.81 C 69.35 288.90 73.74 288.59 78.08 288.91 C 79.70 288.95 80.71 291.27 81.30 292.53 C 83.73 298.44 86.09 304.36 88.92 310.10 C 91.38 316.09 93.72 322.49 96.84 328.19 C 97.48 328.50 98.10 328.85 98.70 329.24 C 99.08 319.84 98.78 310.41 99.08 301.00 C 99.38 296.71 97.53 293.45 96.12 289.58 C 99.75 288.86 103.31 288.64 107.00 288.73 C 111.30 288.84 116.19 288.47 120.34 289.66 C 121.48 291.34 118.67 294.49 118.44 296.40 C 117.26 302.69 118.04 309.59 117.74 316.00 C 117.12 331.33 117.50 346.65 117.23 362.00 C 117.03 367.25 117.59 372.67 116.85 377.86 C 115.55 379.50 113.87 379.16 112.01 379.28 C 108.33 379.25 104.65 379.28 100.98 379.25 C 98.78 379.18 96.60 378.57 95.71 376.35 C 93.07 370.33 90.63 364.20 88.03 358.15 C 85.19 351.45 83.21 343.73 79.06 337.71 C 78.24 343.88 78.89 349.83 78.84 355.99 C 78.70 360.88 78.31 365.56 78.79 370.50 C 79.09 373.17 80.90 375.45 81.66 378.12 C 80.24 379.21 78.70 379.14 77.01 379.18 C 70.61 379.19 64.18 379.02 57.78 379.26 C 57.26 378.37 55.70 377.24 56.19 376.15 C 57.38 373.42 58.93 371.10 59.17 368.03 C 60.06 360.10 59.63 351.97 59.67 344.00 C 59.77 328.98 59.84 314.01 60.03 298.99 C 60.32 294.94 57.75 292.98 56.32 289.55 Z"
     fill="#ffffff"
     id="path12" />
  <path
     d="M 140.15 289.52 C 148.47 288.21 157.20 289.42 165.61 289.43 C 165.47 290.94 165.17 292.08 164.45 293.43 C 162.09 297.83 162.21 303.14 162.19 308.00 C 162.32 311.22 161.80 314.07 163.85 316.81 C 168.74 310.76 172.58 304.14 176.32 297.32 C 177.67 294.96 176.69 292.93 176.42 290.42 C 180.57 288.27 186.41 289.75 191.00 289.44 C 195.81 289.94 201.96 288.21 206.16 290.81 C 203.54 293.71 200.72 296.28 198.36 299.42 C 193.22 306.21 188.94 314.21 184.33 321.35 C 182.57 324.19 180.57 327.06 179.35 330.17 C 178.38 333.12 181.05 336.13 182.35 338.63 C 188.98 350.29 196.17 361.61 202.74 373.30 C 204.32 375.81 206.70 377.31 207.64 380.27 C 200.10 380.60 192.54 380.14 185.00 380.31 C 182.44 380.40 180.20 380.22 177.78 379.33 C 178.74 376.78 179.43 374.61 178.31 371.96 C 175.51 364.86 171.07 358.30 167.34 351.64 C 165.61 349.08 165.01 346.11 161.75 345.18 C 161.45 353.12 161.54 361.06 161.50 369.01 C 161.46 372.51 162.82 375.50 164.55 378.44 C 161.70 380.88 158.48 380.01 155.00 380.14 C 150.02 379.96 144.92 380.47 139.98 379.85 C 137.84 379.81 136.42 377.78 134.91 376.45 C 135.57 376.93 136.24 377.42 136.89 377.91 C 138.62 375.67 140.32 373.72 140.78 370.82 C 141.70 365.01 141.31 358.88 141.38 353.00 C 141.28 340.98 141.99 329.02 141.50 317.00 C 141.54 311.00 142.15 304.99 141.84 298.97 C 141.75 296.00 140.03 293.60 139.10 290.86 C 139.16 289.92 139.51 289.48 140.15 289.52 Z"
     fill="#ffffff"
     id="path14" />
  <path
     d="M 240.97 306.76 C 243.50 306.79 246.47 307.05 248.67 308.42 C 250.78 309.95 252.23 312.49 252.79 315.00 C 253.38 320.82 249.37 327.47 243.01 327.50 C 241.47 327.45 238.59 327.83 238.06 325.91 C 237.49 322.69 237.84 319.27 237.77 316.00 C 237.79 313.67 237.66 311.30 237.89 308.97 C 238.13 307.30 239.46 306.81 240.97 306.76 Z"
     fill="#0003a2"
     id="path16" />
</svg>
