<?xml version="1.0" encoding="UTF-8" standalone="no"?>
<!-- Created with Inkscape (http://www.inkscape.org/) -->

<svg
   width="336"
   height="336.00989"
   id="svg2"
   sodipodi:version="0.32"
   inkscape:version="1.3 (0e150ed6c4, 2023-07-21)"
   version="1.0"
   sodipodi:docname="Nasjonal_Samling_insignia.svg"
   inkscape:output_extension="org.inkscape.output.svg.inkscape"
   xmlns:inkscape="http://www.inkscape.org/namespaces/inkscape"
   xmlns:sodipodi="http://sodipodi.sourceforge.net/DTD/sodipodi-0.dtd"
   xmlns="http://www.w3.org/2000/svg"
   xmlns:svg="http://www.w3.org/2000/svg"
   xmlns:rdf="http://www.w3.org/1999/02/22-rdf-syntax-ns#"
   xmlns:cc="http://creativecommons.org/ns#"
   xmlns:dc="http://purl.org/dc/elements/1.1/">
  <defs
     id="defs4">
    <inkscape:perspective
       sodipodi:type="inkscape:persp3d"
       inkscape:vp_x="0 : 522.181 : 1"
       inkscape:vp_y="0 : 1000 : 0"
       inkscape:vp_z="744.09448 : 522.181 : 1"
       inkscape:persp3d-origin="372.04724 : 346.7873 : 1"
       id="perspective10" />
    <inkscape:perspective
       id="perspective2390"
       inkscape:persp3d-origin="372.04724 : 346.7873 : 1"
       inkscape:vp_z="744.09448 : 522.181 : 1"
       inkscape:vp_y="0 : 1000 : 0"
       inkscape:vp_x="0 : 522.181 : 1"
       sodipodi:type="inkscape:persp3d" />
    <inkscape:perspective
       id="perspective2436"
       inkscape:persp3d-origin="372.04724 : 346.7873 : 1"
       inkscape:vp_z="744.09448 : 522.181 : 1"
       inkscape:vp_y="0 : 1000 : 0"
       inkscape:vp_x="0 : 522.181 : 1"
       sodipodi:type="inkscape:persp3d" />
    <inkscape:perspective
       id="perspective2391"
       inkscape:persp3d-origin="372.04724 : 346.7873 : 1"
       inkscape:vp_z="744.09448 : 522.181 : 1"
       inkscape:vp_y="0 : 1000 : 0"
       inkscape:vp_x="0 : 522.181 : 1"
       sodipodi:type="inkscape:persp3d" />
  </defs>
  <sodipodi:namedview
     id="base"
     pagecolor="#ffffff"
     bordercolor="#666666"
     borderopacity="1.0"
     gridtolerance="10000"
     guidetolerance="10"
     objecttolerance="10"
     inkscape:pageopacity="0.0"
     inkscape:pageshadow="2"
     inkscape:zoom="1"
     inkscape:cx="258"
     inkscape:cy="243.5"
     inkscape:document-units="px"
     inkscape:current-layer="layer1"
     showgrid="false"
     inkscape:window-width="1920"
     inkscape:window-height="1007"
     inkscape:window-x="-9"
     inkscape:window-y="-9"
     inkscape:showpageshadow="2"
     inkscape:pagecheckerboard="0"
     inkscape:deskcolor="#d1d1d1"
     inkscape:window-maximized="1" />
  <metadata
     id="metadata7">
    <rdf:RDF>
      <cc:Work
         rdf:about="">
        <dc:format>image/svg+xml</dc:format>
        <dc:type
           rdf:resource="http://purl.org/dc/dcmitype/StillImage" />
      </cc:Work>
    </rdf:RDF>
  </metadata>
  <g
     inkscape:label="Layer 1"
     inkscape:groupmode="layer"
     id="layer1"
     transform="translate(-166,-300.36365)">
    <circle
       style="opacity:1;fill:#ffc515;fill-opacity:1;fill-rule:nonzero;stroke:none;stroke-width:2;stroke-linecap:round;stroke-linejoin:round;stroke-miterlimit:4;stroke-dasharray:none;stroke-opacity:1"
       id="path2396"
       transform="matrix(0.7777778,0,0,0.7777778,71.11111,103.30417)"
       cx="338"
       cy="469.36218"
       r="216" />
    <path
       style="opacity:1;fill:#fe0f08;fill-opacity:1;fill-rule:nonzero;stroke:none;stroke-width:2;stroke-linecap:round;stroke-linejoin:round;stroke-miterlimit:4;stroke-dasharray:none;stroke-opacity:1"
       d="m 300.83831,320.9882 c -55.43296,12.43173 -99.36482,55.35908 -113.26033,110.22593 8.19278,7.03226 19.36902,11.34288 31.71675,11.34288 h 91.20069 v -13.07683 -67.8406 -11.05389 c 0,-11.32393 -3.63655,-21.64009 -9.65711,-29.59749 z m 67.961,0.38532 c -5.85036,7.89866 -9.36812,18.07049 -9.36812,29.21217 v 11.05389 67.8406 13.07683 h 91.2007 c 11.56788,0 22.08369,-3.80596 30.1032,-10.06651 C 467.33418,377.55889 423.88452,334.37827 368.79931,321.37352 Z M 219.29473,490.72216 c -12.70743,0 -24.16232,4.57219 -32.41515,11.96903 12.8933,55.43405 56.33603,99.15167 111.59864,112.48968 7.42569,-8.25604 12.0172,-19.75037 12.0172,-32.48738 v -11.05391 -67.84059 -13.07683 z m 140.13646,0 v 13.07683 67.84059 11.05391 c 0,12.54546 4.45086,23.87642 11.68005,32.10206 54.96003,-13.90087 97.95056,-57.92665 110.32225,-113.47706 -8.10445,-6.57654 -18.9038,-10.59633 -30.8016,-10.59633 z"
       id="rect2398" />
    <path
       style="opacity:1;fill:#ffc515;fill-opacity:1;fill-rule:nonzero;stroke:none;stroke-width:2;stroke-linecap:round;stroke-linejoin:round;stroke-miterlimit:4;stroke-dasharray:none;stroke-opacity:1"
       d="m 334,300.37352 c -92.736,0 -168,75.26399 -168,168.00001 0,92.736 75.26401,168.00002 168,168 92.736,0 168.00002,-75.26401 168,-168 0,-92.736 -75.26398,-168.00001 -168,-168.00001 z m 0,16.95414 c 83.37732,0 151.04589,67.66855 151.04589,151.04587 0,83.37732 -67.66857,151.04588 -151.04589,151.04588 -83.37732,-10e-6 -151.04586,-67.66856 -151.04586,-151.04588 0,-83.37732 67.66854,-151.04587 151.04586,-151.04587 z"
       id="path2419" />
  </g>
</svg>
