<?xml version="1.0" encoding="UTF-8" standalone="no"?>
<!-- Created with Inkscape (http://www.inkscape.org/) -->

<svg
   id="svg2879"
   version="1.1"
   width="2099"
   height="1711"
   xmlns="http://www.w3.org/2000/svg"
   xmlns:svg="http://www.w3.org/2000/svg"
   xmlns:rdf="http://www.w3.org/1999/02/22-rdf-syntax-ns#"
   xmlns:cc="http://creativecommons.org/ns#"
   xmlns:dc="http://purl.org/dc/elements/1.1/">
  <metadata
     id="metadata2885">
    <rdf:RDF>
      <cc:Work
         rdf:about="">
        <dc:format>image/svg+xml</dc:format>
        <dc:type
           rdf:resource="http://purl.org/dc/dcmitype/StillImage" />
        <dc:title />
      </cc:Work>
    </rdf:RDF>
  </metadata>
  <defs
     id="defs2883" />
  <g
     id="g2891">
    <path
       style="fill:#f40001"
       d="m 662.96189,1655.75 c -3.7932,-1.9128 -5.00907,-3.3446 -8.11299,-9.5541 -17.20278,-34.4145 -32.1827,-161.5897 -36.95012,-313.6959 -1.71802,-54.8142 -0.0875,-178.6446 2.38479,-181.1169 0.23078,-0.2308 8.02388,3.0117 17.31801,7.2054 124.59981,56.223 287.05634,123.7291 459.53492,190.9521 l 27.6364,10.7713 -12.4734,11.0222 c -76.387,67.5001 -171.48406,140.8217 -251.7995,194.1421 -104.11254,69.119 -175.12999,101.5736 -197.53811,90.2738 z M 1719,1428.4248 c -1.925,-0.2089 -10.25,-0.8761 -18.5,-1.4827 -94.3354,-6.9355 -249.9639,-39.3242 -367.5115,-76.4846 -18.261,-5.7729 -52.3478,-17.459 -62.4389,-21.4063 l -2.9505,-1.1541 18.4505,-17.6282 c 68.0401,-65.0077 144.4305,-143.4514 289.7543,-297.5426 C 1616.121,969.97684 1649.4694,935 1649.9114,935 c 0.8101,0 2.3984,3.29137 17.8548,37 57.2878,124.938 114.4345,279.6019 135.7697,367.4521 6.8725,28.2979 8.82,40.8951 8.897,57.5479 0.081,17.495 -0.8415,19.8555 -9.4859,24.2732 -10.5377,5.3854 -21.2755,6.8625 -52.447,7.2149 -15.4,0.1741 -29.575,0.1457 -31.5,-0.063 z M 1181,1300.8102 C 1068.3646,1272.8418 902.49239,1212.5329 758.92763,1147.3504 729.26687,1133.8836 654.79371,1097.2336 632.25,1085.0094 l -11.25,-6.1003 0.007,-7.7045 c 0.004,-4.2375 0.45963,-17.6046 1.01338,-29.7046 5.67155,-123.93009 26.79449,-260.72572 64.54439,-418 8.59679,-35.81612 23.16519,-92.12609 24.46117,-94.54764 1.61362,-3.01508 62.95516,-20.40682 138.9745,-39.40248 163.76596,-40.92174 340.61546,-75.54962 447.49996,-87.62238 l 19,-2.14608 6.3522,6.85929 c 82.4171,88.99684 178.7204,235.80516 269.1873,410.35929 20.1078,38.79745 27.22,53.76233 26.2869,55.30991 -2.8283,4.69041 -32.3492,40.99337 -49.7586,61.19001 C 1464.9552,1053.7011 1317.0913,1197.9867 1199,1294.1245 l -10.5,8.548 z M 543,1037.3511 C 411.66953,961.24703 300.68398,883.59137 247.41291,830.53129 226.1991,809.4015 217.42288,796.55343 217.57105,786.84386 217.80607,771.44317 252.3418,739.29267 309,701.72948 c 74.91418,-49.6665 169.21892,-96.03506 266,-130.78913 20.65611,-7.41761 69.22362,-23.05007 69.80537,-22.46831 0.17234,0.17234 -2.62331,13.97413 -6.21255,30.67065 C 602.90061,745.17646 573.0243,921.4213 563.52143,1022 c -2.02661,21.4497 -2.50192,25.009 -3.3327,24.9563 -0.3788,-0.024 -8.11373,-4.3463 -17.18873,-9.6052 z M 1656.0198,807.1788 C 1653.0489,801.85546 1642.2192,783.1 1631.9537,765.5 1585.454,685.77691 1537.8612,612.05707 1446.9922,479 c -55.5947,-81.40584 -57.3927,-84.13445 -56.0049,-84.99216 0.6563,-0.40558 4.4151,-1.03575 8.3529,-1.40037 3.9379,-0.36463 14.1348,-1.32346 22.6598,-2.13074 38.1073,-3.60858 61.9756,-4.68562 115.0517,-5.19161 69.476,-0.66234 107.6353,1.03072 163.9483,7.27408 91.3146,10.12396 163.7737,30.69274 172.437,48.94926 1.5611,3.28971 1.6368,4.62987 0.6404,11.32915 -6.9027,46.41042 -79.1407,178.76441 -161.2023,295.35381 -13.2833,18.87229 -49.2566,67.30831 -50.6118,68.14587 -0.4631,0.28617 -3.2726,-3.83515 -6.2435,-9.15849 z M 734.68378,453.56723 c 3.7151,-12.82875 18.31481,-56.09344 25.33151,-75.06723 20.15359,-54.49717 41.0649,-102.72433 67.42483,-155.5 21.17137,-42.38756 37.82291,-71.86595 57.10487,-101.09333 C 907.69487,86.816344 926.17423,68 937.48625,68 c 22.42656,0 79.98035,36.58637 149.51375,95.04432 53.9829,45.38437 123.3265,113.53971 176.9284,173.89635 7.2989,8.21871 8.1373,9.5327 6.4778,10.15157 -1.0484,0.39099 -16.3062,3.02535 -33.9062,5.85412 -117.8048,18.93425 -311.00808,59.10941 -473.14182,98.38625 l -30.14183,7.30185 z"
       id="path2893" />
  </g>
</svg>
